<?xml version="1.0" encoding="UTF-8"?>
<svg width="21px" height="20px" viewBox="0 0 21 20" version="1.1" xmlns="http://www.w3.org/2000/svg" xmlns:xlink="http://www.w3.org/1999/xlink">
    <!-- Generator: Sketch 63.1 (92452) - https://sketch.com -->
    <title>Group 17</title>
    <desc>Created with Sketch.</desc>
    <g id="Page-1" stroke="none" stroke-width="1" fill="none" fill-rule="evenodd">
        <g id="heart" transform="translate(-88.000000, -62.000000)">
            <g id="Group-17" transform="translate(89.000000, 62.000000)">
                <path d="M9.2577,18.3989 C9.6117,18.6619 10.0837,18.6619 10.4377,18.3989 C12.3277,16.9959 18.1727,12.3859 19.1377,8.3829 C20.2907,3.5939 17.3487,0.6509 14.4917,0.6509 C12.4107,0.6509 10.8957,2.1229 10.2277,2.9199 C10.0287,3.1589 9.6667,3.1589 9.4677,2.9199 C8.7997,2.1229 7.2837,0.6509 5.2027,0.6509 C2.3467,0.6509 -0.5963,3.5939 0.5577,8.3829 C1.5227,12.3859 7.3667,16.9959 9.2577,18.3989" id="Fill-11" fill="#FF6196"></path>
                <path d="M14.492,0.6509 C12.411,0.6509 10.895,2.1229 10.227,2.9209 C10.028,3.1589 9.667,3.1589 9.468,2.9209 C8.8,2.1229 7.284,0.6509 5.203,0.6509 C2.346,0.6509 -0.596,3.5939 0.557,8.3829 C0.76,9.2199 1.183,10.0829 1.73,10.9379 C1.666,10.7729 1.596,10.6079 1.553,10.4459 C0.522,6.6029 3.15,4.2419 5.7,4.2419 C8.251,4.2419 9.847,6.0199 9.847,6.0199 C9.847,6.0199 11.445,4.2419 13.995,4.2419 C16.546,4.2419 19.173,6.6029 18.142,10.4459 C18.098,10.6079 18.029,10.7729 17.965,10.9379 C18.513,10.0829 18.935,9.2199 19.138,8.3829 C20.291,3.5939 17.348,0.6509 14.492,0.6509" id="Fill-13" fill="#FF87AF"></path>
                <path d="M9.2577,18.3989 C9.6117,18.6619 10.0837,18.6619 10.4377,18.3989 C12.3277,16.9959 18.1727,12.3859 19.1377,8.3829 C20.2907,3.5939 17.3487,0.6509 14.4917,0.6509 C12.4107,0.6509 10.8957,2.1229 10.2277,2.9199 C10.0287,3.1589 9.6667,3.1589 9.4677,2.9199 C8.7997,2.1229 7.2837,0.6509 5.2027,0.6509 C2.3467,0.6509 -0.5963,3.5939 0.5577,8.3829 C1.5227,12.3859 7.3667,16.9959 9.2577,18.3989 Z" id="Stroke-15" stroke="#45413C" stroke-linecap="round" stroke-linejoin="round"></path>
            </g>
        </g>
    </g>
</svg>