<?xml version="1.0" encoding="UTF-8"?>
<svg width="388px" height="296px" viewBox="0 0 388 296" version="1.1" xmlns="http://www.w3.org/2000/svg" xmlns:xlink="http://www.w3.org/1999/xlink">
    <!-- Generator: Sketch 63.1 (92452) - https://sketch.com -->
    <title>letter</title>
    <desc>Created with Sketch.</desc>
    <g id="letter" stroke="none" stroke-width="1" fill="none" fill-rule="evenodd">
        <g id="Group-19" transform="translate(11.000000, 8.000000)">
            <path d="M204.762667,104.214089 L35.1395595,160.981965 C34.957377,161.042772 34.7604662,160.94484 34.699632,160.763058 L0.0180406815,57.2256446 C-0.0427935429,57.0435424 0.0551815764,56.8470385 0.23736407,56.785911 L169.860471,0.0180353296 C170.042334,-0.0427720782 170.239245,0.0551598523 170.300399,0.236941998 L204.98199,103.774355 C205.042825,103.956458 204.944529,104.153282 204.762667,104.214089" id="Fill-1" fill="#F0D5A8"></path>
            <path d="M195.691643,89.8307496 L34.855924,143.447101 C32.4334429,144.254572 29.8113207,142.953981 29,140.54141 L34.1495265,155.854788 C34.9611661,158.267677 37.5829694,159.56795 40.0057695,158.760479 L200.841169,105.144128 C203.263651,104.336656 204.570885,101.726584 203.759245,99.313378 L198.6094,84 C199.421039,86.4128882 198.114124,89.0232783 195.691643,89.8307496" id="Fill-3" fill="#DEBB7E"></path>
            <path d="M204.762667,104.214089 L35.1395595,160.981965 C34.957377,161.042772 34.7604662,160.94484 34.699632,160.763058 L0.0180406815,57.2256446 C-0.0427935429,57.0435424 0.0551815764,56.8470385 0.23736407,56.785911 L169.860471,0.0180353296 C170.042334,-0.0427720782 170.239245,0.0551598523 170.300399,0.236941998 L204.98199,103.774355 C205.042825,103.956458 204.944529,104.153282 204.762667,104.214089 Z" id="Stroke-5" stroke="#45413C" stroke-width="3" stroke-linecap="round" stroke-linejoin="round"></path>
            <polyline id="Stroke-7" stroke="#45413C" stroke-width="3" stroke-linecap="round" stroke-linejoin="round" points="2 57.8521397 105.245184 87 170 2"></polyline>
            <line x1="116" y1="71" x2="203" y2="103" id="Stroke-9" stroke="#45413C" stroke-width="3" stroke-linecap="round" stroke-linejoin="round"></line>
            <line x1="36" y1="159" x2="86" y2="82" id="Stroke-11" stroke="#45413C" stroke-width="3" stroke-linecap="round" stroke-linejoin="round"></line>
            <path d="M108.80726,103.883468 C109.92949,104.217679 111.14414,103.817197 111.836155,102.884958 C115.539998,97.8958949 126.766488,81.825557 125.958547,71.3464321 C124.992173,58.8116256 115.020262,54.2011658 107.685673,56.6195961 C102.339542,58.3819713 99.6571373,63.2156611 98.5957681,65.7070216 C98.2785811,66.4512272 97.3524592,66.756583 96.6440211,66.3503932 C94.2730075,64.9907198 89.1757951,62.721955 83.8296634,64.4846473 C76.4950746,66.9030777 71.3527799,76.4959415 78.2462049,87.0768517 C84.0093491,95.9223391 102.799382,102.09636 108.80726,103.883468" id="Fill-13" fill="#FF6196"></path>
            <path d="M107.686733,55.6322725 C102.340143,57.4314182 99.6579923,62.365071 98.5962741,64.9076305 C98.2790789,65.6675503 97.3532554,65.9792209 96.6444772,65.5643073 C94.2737251,64.1768388 89.1763827,61.8611549 83.8297924,63.6603005 C76.4950165,66.1284216 71.3525905,75.9199942 78.2465134,86.7197228 C79.451211,88.6069 81.2471475,90.3668845 83.3544827,92 C83.0530668,91.6507864 82.7390919,91.3038384 82.4940305,90.941679 C76.6940283,82.3657191 81.5041239,74.2781403 88.0538016,72.0741141 C94.6031572,69.8704115 100.163894,72.8702821 100.163894,72.8702821 C100.163894,72.8702821 102.806436,67.1097149 109.355792,64.9060123 C115.905147,62.7019861 124.590821,66.2481704 125.098011,76.6051518 C125.119587,77.0427206 125.076435,77.5090939 125.045199,77.9702888 C125.749468,75.3911574 126.129137,72.8997339 125.960073,70.6636667 C124.993352,57.8699579 115.021509,53.1641515 107.686733,55.6322725" id="Fill-15" fill="#FF87AF"></path>
            <path d="M108.80726,103.883468 C109.92949,104.217679 111.14414,103.817197 111.836155,102.884958 C115.539998,97.8958949 126.766488,81.825557 125.958547,71.3464321 C124.992173,58.8116256 115.020262,54.2011658 107.685673,56.6195961 C102.339542,58.3819713 99.6571373,63.2156611 98.5957681,65.7070216 C98.2785811,66.4512272 97.3524592,66.756583 96.6440211,66.3503932 C94.2730075,64.9907198 89.1757951,62.721955 83.8296634,64.4846473 C76.4950746,66.9030777 71.3527799,76.4959415 78.2462049,87.0768517 C84.0093491,95.9223391 102.799382,102.09636 108.80726,103.883468 Z" id="Stroke-17" stroke="#45413C" stroke-width="3" stroke-linecap="round" stroke-linejoin="round"></path>
        </g>
        <rect id="Rectangle" stroke="#45413C" stroke-width="3" fill="#FFFEF2" x="19.5" y="126.5" width="350" height="178"></rect>
        <g id="Group-33" transform="translate(253.000000, 138.000000)">
            <path d="M97.9199417,97.2253877 C90.0632755,123.690786 62.239656,138.776641 35.7744087,130.91993 C9.30916147,123.063219 -5.77660789,95.239441 2.0800583,68.7740432 C9.9367245,42.3086453 37.760344,27.2234121 64.2255913,35.080123 C90.6908385,42.9362119 105.776608,70.7599898 97.9199417,97.2253877" id="Fill-1" fill="#00B8F0"></path>
            <path d="M98.9665108,73.0378472 C98.9963673,77.4694015 98.3930166,81.9791816 97.0637791,86.4486071 C89.822327,110.794839 64.1780574,124.67247 39.785896,117.445274 C15.3937345,110.217458 1.48930056,84.6214757 8.73075265,60.2746232 C10.0599902,55.8058185 12.0199468,51.6977217 14.4675601,48 C8.85328881,53.6539878 4.50916397,60.724732 2.08021101,68.8906375 C-5.77703198,95.3079907 9.30984489,123.080637 35.7770351,130.923706 C62.2442252,138.766154 90.0698874,123.707685 97.9271304,97.2903321 C100.355461,89.1250474 100.580629,80.8337322 98.9665108,73.0378472" id="Fill-3" fill="#009FD9"></path>
            <path d="M97.9199417,97.2253877 C90.0632755,123.690786 62.239656,138.776641 35.7744087,130.91993 C9.30916147,123.063219 -5.77660789,95.239441 2.0800583,68.7740432 C9.9367245,42.3086453 37.760344,27.2234121 64.2255913,35.080123 C90.6908385,42.9362119 105.776608,70.7599898 97.9199417,97.2253877 Z" id="Stroke-5" stroke="#45413C" stroke-width="3" stroke-linecap="round" stroke-linejoin="round"></path>
            <path d="M84.8046605,46.1356848 L74.9938041,45.0082922 C74.8413879,44.9906471 74.6870977,45.0013602 74.5384295,45.0385408 L61.4287616,48.3564402 C61.2070085,48.4125262 60.9740116,48.4074848 60.7547572,48.341946 L52.7535309,45.9453703 C52.5086655,45.8722694 52.2481837,45.8747901 52.0051923,45.9523023 L35.8921756,51.0945736 C35.0588837,51.3611399 34.730939,52.3732094 35.2481546,53.0840528 L37.1677243,55.7219876 C37.4519431,56.1133296 37.9298054,56.3099458 38.4039197,56.2311733 L48.7913341,54.5051094 C49.2473335,54.4294878 49.70833,54.6078288 49.9962967,54.972073 L52.80975,58.5281805 C53.2195247,59.0468189 53.9534962,59.1665531 54.5044433,58.8041995 L56.2197503,57.6755465 C56.7038592,57.3573055 57.3397596,57.4064595 57.770148,57.795911 L62.1646071,61.7805411 C62.252059,61.8593136 62.3276424,61.9500596 62.3907328,62.0502582 L64.6925923,65.7267301 C64.8956057,66.051273 65.2316709,66.2674248 65.6089635,66.3159487 L68.9108982,66.7444713 C69.8485078,66.8660961 70.333866,67.9380328 69.8122777,68.7326902 L68.0732338,71.3800777 C67.8015081,71.7947363 67.7902643,72.3303896 68.0444996,72.7563915 L73.7438663,82.2916497 C73.8994058,82.551284 73.9587481,82.8575516 73.9125236,83.1575174 L73.1010947,88.3375995 C72.9724154,89.1587245 73.63705,89.8859526 74.4584734,89.8223043 L81.4964792,89.2822398 C81.7425939,89.2633344 81.9780894,89.1732186 82.1742316,89.0219754 L87.2433198,85.1192687 C87.5237907,84.903747 87.7030671,84.5804646 87.7392972,84.2263032 L88.0809843,80.8409746 C88.1778061,79.8843609 89.2415963,79.3682432 90.042406,79.8887722 L94.3650296,82.6987462 C94.75544,82.9527088 94.9784424,83.400767 94.9465849,83.8683608 L94.2900708,93.6222916 C94.216986,94.7024206 95.4182006,95.3855361 96.2964678,94.7635481 L100.262412,91.9542043 C103.234529,74.6904148 97.0535516,57.5400578 84.8046605,46.1356848" id="Fill-7" fill="#6DD627"></path>
            <path d="M84.8046605,46.1356848 L74.9938041,45.0082922 C74.8413879,44.9906471 74.6870977,45.0013602 74.5384295,45.0385408 L61.4287616,48.3564402 C61.2070085,48.4125262 60.9740116,48.4074848 60.7547572,48.341946 L52.7535309,45.9453703 C52.5086655,45.8722694 52.2481837,45.8747901 52.0051923,45.9523023 L35.8921756,51.0945736 C35.0588837,51.3611399 34.730939,52.3732094 35.2481546,53.0840528 L37.1677243,55.7219876 C37.4519431,56.1133296 37.9298054,56.3099458 38.4039197,56.2311733 L48.7913341,54.5051094 C49.2473335,54.4294878 49.70833,54.6078288 49.9962967,54.972073 L52.80975,58.5281805 C53.2195247,59.0468189 53.9534962,59.1665531 54.5044433,58.8041995 L56.2197503,57.6755465 C56.7038592,57.3573055 57.3397596,57.4064595 57.770148,57.795911 L62.1646071,61.7805411 C62.252059,61.8593136 62.3276424,61.9500596 62.3907328,62.0502582 L64.6925923,65.7267301 C64.8956057,66.051273 65.2316709,66.2674248 65.6089635,66.3159487 L68.9108982,66.7444713 C69.8485078,66.8660961 70.333866,67.9380328 69.8122777,68.7326902 L68.0732338,71.3800777 C67.8015081,71.7947363 67.7902643,72.3303896 68.0444996,72.7563915 L73.7438663,82.2916497 C73.8994058,82.551284 73.9587481,82.8575516 73.9125236,83.1575174 L73.1010947,88.3375995 C72.9724154,89.1587245 73.63705,89.8859526 74.4584734,89.8223043 L81.4964792,89.2822398 C81.7425939,89.2633344 81.9780894,89.1732186 82.1742316,89.0219754 L87.2433198,85.1192687 C87.5237907,84.903747 87.7030671,84.5804646 87.7392972,84.2263032 L88.0809843,80.8409746 C88.1778061,79.8843609 89.2415963,79.3682432 90.042406,79.8887722 L94.3650296,82.6987462 C94.75544,82.9527088 94.9784424,83.400767 94.9465849,83.8683608 L94.2900708,93.6222916 C94.216986,94.7024206 95.4182006,95.3855361 96.2964678,94.7635481 L100.262412,91.9542043 C103.234529,74.6904148 97.0535516,57.5400578 84.8046605,46.1356848 Z" id="Stroke-9" stroke="#45413C" stroke-width="3" stroke-linecap="round" stroke-linejoin="round"></path>
            <path d="M67.3861406,38.8733017 L62.9654964,36.1959517 C62.6764642,36.0200133 62.3274321,35.9595152 61.9919483,36.0268039 L55.0500143,37.4096178 C54.0971113,37.5997547 53.6809824,38.6794608 54.2764661,39.41655 L55.7242077,41.2080348 C55.9577561,41.4975614 56.3113044,41.6759691 56.6932398,41.6957236 L62.3454966,41.9982142 C62.4545288,42.0037701 62.5642062,41.9963622 62.6719481,41.9759904 L66.9345278,41.1771684 C68.104205,40.9573998 68.3932372,39.4832214 67.3861406,38.8733017" id="Fill-11" fill="#6DD627"></path>
            <path d="M67.3861406,38.8733017 L62.9654964,36.1959517 C62.6764642,36.0200133 62.3274321,35.9595152 61.9919483,36.0268039 L55.0500143,37.4096178 C54.0971113,37.5997547 53.6809824,38.6794608 54.2764661,39.41655 L55.7242077,41.2080348 C55.9577561,41.4975614 56.3113044,41.6759691 56.6932398,41.6957236 L62.3454966,41.9982142 C62.4545288,42.0037701 62.5642062,41.9963622 62.6719481,41.9759904 L66.9345278,41.1771684 C68.104205,40.9573998 68.3932372,39.4832214 67.3861406,38.8733017 Z" id="Stroke-13" stroke="#45413C" stroke-width="3" stroke-linecap="round" stroke-linejoin="round"></path>
            <path d="M64.4715471,71.1489798 L50.2071936,66.9892525 C49.8987752,66.8989726 49.6097896,66.7520341 49.3565354,66.5565313 L44.4111834,62.7361322 C44.1084067,62.5026496 43.7561076,62.339523 43.3812413,62.2585823 L33.5005671,60.1285978 C32.145908,59.8365888 30.7304429,60.0457892 29.52059,60.7163515 L21.4998296,65.1624841 C20.9162166,65.4856241 20.4824248,66.0235682 20.2918573,66.6598863 L18.1059728,73.9738088 C17.8633754,74.7850832 18.0432862,75.6629781 18.5842722,76.3154843 L22.4075327,80.9278566 C22.7886677,81.3867279 23.318997,81.6986607 23.9076249,81.8101098 L33.8227767,83.679839 C34.8320322,83.8703609 35.6287799,84.6405424 35.8475564,85.6379804 L38.7349047,98.7871017 C38.874696,99.4240424 38.7624869,100.090246 38.4227251,100.647492 L35.943467,104.711958 C35.5660932,105.33022 35.4720632,106.079855 35.6839441,106.771586 L38.846487,117.082181 C39.1367263,118.028564 39.9529069,118.721541 40.9383414,118.860385 L48.8732211,119.974876 C49.6298493,120.081344 50.3952536,119.845993 50.9594337,119.334199 L61.6876318,109.602642 C62.0311547,109.290709 62.2831552,108.891609 62.4154241,108.448303 L64.3862932,101.854753 C64.5975473,101.148078 65.1078169,100.566551 65.784833,100.261467 L73.4952944,96.7909805 C74.9527596,96.1347386 75.4548799,94.3254035 74.5402813,93.0203911 L72.0835904,89.5131701 L65.5190415,80.8338409 C65.0526526,80.2174467 64.8934284,79.4236056 65.0852497,78.6758384 L66.231789,74.2203665 C66.5734314,72.8923171 65.7948629,71.5350045 64.4715471,71.1489798" id="Fill-15" fill="#6DD627"></path>
            <path d="M64.4715471,71.1489798 L50.2071936,66.9892525 C49.8987752,66.8989726 49.6097896,66.7520341 49.3565354,66.5565313 L44.4111834,62.7361322 C44.1084067,62.5026496 43.7561076,62.339523 43.3812413,62.2585823 L33.5005671,60.1285978 C32.145908,59.8365888 30.7304429,60.0457892 29.52059,60.7163515 L21.4998296,65.1624841 C20.9162166,65.4856241 20.4824248,66.0235682 20.2918573,66.6598863 L18.1059728,73.9738088 C17.8633754,74.7850832 18.0432862,75.6629781 18.5842722,76.3154843 L22.4075327,80.9278566 C22.7886677,81.3867279 23.318997,81.6986607 23.9076249,81.8101098 L33.8227767,83.679839 C34.8320322,83.8703609 35.6287799,84.6405424 35.8475564,85.6379804 L38.7349047,98.7871017 C38.874696,99.4240424 38.7624869,100.090246 38.4227251,100.647492 L35.943467,104.711958 C35.5660932,105.33022 35.4720632,106.079855 35.6839441,106.771586 L38.846487,117.082181 C39.1367263,118.028564 39.9529069,118.721541 40.9383414,118.860385 L48.8732211,119.974876 C49.6298493,120.081344 50.3952536,119.845993 50.9594337,119.334199 L61.6876318,109.602642 C62.0311547,109.290709 62.2831552,108.891609 62.4154241,108.448303 L64.3862932,101.854753 C64.5975473,101.148078 65.1078169,100.566551 65.784833,100.261467 L73.4952944,96.7909805 C74.9527596,96.1347386 75.4548799,94.3254035 74.5402813,93.0203911 L72.0835904,89.5131701 L65.5190415,80.8338409 C65.0526526,80.2174467 64.8934284,79.4236056 65.0852497,78.6758384 L66.231789,74.2203665 C66.5734314,72.8923171 65.7948629,71.5350045 64.4715471,71.1489798 Z" id="Stroke-17" stroke="#45413C" stroke-width="3" stroke-linecap="round" stroke-linejoin="round"></path>
            <path d="M69.7801765,109.27647 L63.8343769,113.881143 C63.5596325,114.094775 63.3866453,114.406066 63.3561181,114.744214 L63.0050558,118.644514 C62.9274659,119.500871 63.7555151,120.174116 64.6236311,119.959874 L68.749249,118.940547 C69.0812318,118.858756 69.366152,118.65428 69.5416831,118.371066 L73.8161209,111.485419 C74.2498609,110.786539 73.8822631,109.882573 73.0701136,109.65124 L70.9656477,109.051852 C70.5560751,108.934659 70.1127953,109.018891 69.7801765,109.27647" id="Fill-19" fill="#6DD627"></path>
            <path d="M69.7801765,109.27647 L63.8343769,113.881143 C63.5596325,114.094775 63.3866453,114.406066 63.3561181,114.744214 L63.0050558,118.644514 C62.9274659,119.500871 63.7555151,120.174116 64.6236311,119.959874 L68.749249,118.940547 C69.0812318,118.858756 69.366152,118.65428 69.5416831,118.371066 L73.8161209,111.485419 C74.2498609,110.786539 73.8822631,109.882573 73.0701136,109.65124 L70.9656477,109.051852 C70.5560751,108.934659 70.1127953,109.018891 69.7801765,109.27647 Z" id="Stroke-21" stroke="#45413C" stroke-width="3" stroke-linecap="round" stroke-linejoin="round"></path>
            <path d="M75.6264095,60.5825244 L73.2160293,64.396484 C72.7835521,65.080001 73.0248926,66.0205728 73.721695,66.3652747 L78.7964978,68.8789168 C79.2023611,69.0790663 79.675969,69.0287018 80.0370724,68.7454838 L82.489793,66.8218248 C83.1515134,66.3031368 83.1732885,65.2441759 82.5333431,64.6940919 L77.4161999,60.2908032 C76.8548868,59.8074357 76.0316679,59.9415227 75.6264095,60.5825244" id="Fill-23" fill="#00B8F0"></path>
            <path d="M75.6264095,60.5825244 L73.2160293,64.396484 C72.7835521,65.080001 73.0248926,66.0205728 73.721695,66.3652747 L78.7964978,68.8789168 C79.2023611,69.0790663 79.675969,69.0287018 80.0370724,68.7454838 L82.489793,66.8218248 C83.1515134,66.3031368 83.1732885,65.2441759 82.5333431,64.6940919 L77.4161999,60.2908032 C76.8548868,59.8074357 76.0316679,59.9415227 75.6264095,60.5825244 Z" id="Stroke-25" stroke="#45413C" stroke-width="3" stroke-linecap="round" stroke-linejoin="round"></path>
            <path d="M28.2925661,45.0015716 C28.971832,45.8728677 30.1243569,46.2181453 31.1661454,45.8604028 C36.7413221,43.9501578 54.1603469,37.412944 59.2746374,28.7380009 C65.3917421,18.3609764 60.2539433,9.3239281 53.2954893,7.24291401 C48.2232662,5.72593639 43.5178962,8.0693365 41.3390489,9.45044678 C40.6882404,9.86365802 39.809154,9.601272 39.4874616,8.89700548 C38.4097921,6.54176371 35.7354147,1.99083083 30.6638103,0.473853203 C23.7053562,-1.60716089 14.5049536,3.14196381 14.0112795,15.2005025 C13.5980285,25.2814857 24.6549675,40.3353385 28.2925661,45.0015716" id="Fill-27" fill="#FF6196"></path>
            <path d="M53.2954182,7.27069547 C48.2231538,5.74777583 43.5177454,8.10035506 41.3388802,9.48750085 C40.6880665,9.90233065 39.8089729,9.63829117 39.4872779,8.93189171 C38.4095996,6.56679876 35.7352004,1.99866551 30.6635546,0.475745864 C23.7050437,-1.61341958 14.504566,3.15368181 14.0108878,15.2600796 C13.9242776,17.3755238 14.3604219,19.7149637 15.1040323,22.1257317 C15.0594899,21.6915056 15.0044306,21.2528998 15.0099984,20.8386957 C15.1522865,11.0479617 23.1841452,7.4164803 29.3971897,9.28227586 C35.6102342,11.1480714 38.2734978,16.4976864 38.2734978,16.4976864 C38.2734978,16.4976864 43.3921606,13.4843828 49.6058237,15.3501784 C55.8188682,17.2153482 60.5904716,24.6904185 55.4266478,32.973875 C55.208885,33.3236335 54.9255459,33.6608782 54.6545797,34 C56.5785634,32.39011 58.2055979,30.670725 59.2746152,28.8499788 C65.3917698,18.4323074 60.2539291,9.35986092 53.2954182,7.27069547" id="Fill-29" fill="#FF87AF"></path>
            <path d="M28.2925661,45.0015716 C28.971832,45.8728677 30.1243569,46.2181453 31.1661454,45.8604028 C36.7413221,43.9501578 54.1603469,37.412944 59.2746374,28.7380009 C65.3917421,18.3609764 60.2539433,9.3239281 53.2954893,7.24291401 C48.2232662,5.72593639 43.5178962,8.0693365 41.3390489,9.45044678 C40.6882404,9.86365802 39.809154,9.601272 39.4874616,8.89700548 C38.4097921,6.54176371 35.7354147,1.99083083 30.6638103,0.473853203 C23.7053562,-1.60716089 14.5049536,3.14196381 14.0112795,15.2005025 C13.5980285,25.2814857 24.6549675,40.3353385 28.2925661,45.0015716 Z" id="Stroke-31" stroke="#45413C" stroke-width="3" stroke-linecap="round" stroke-linejoin="round"></path>
        </g>
        <path d="M44.2267069,183.825581 C45.7869789,183.825581 47.5102644,182.069767 49.3965633,178.55814 C50.9568353,175.604651 52.3540938,172.034884 53.5883388,167.848837 C54.7527209,163.94186 55.2883366,161.209302 55.1951861,159.651163 C55.1253231,158.581395 54.6945018,157.511628 53.902722,156.44186 C53.2040927,155.511628 52.470532,154.860465 51.7020398,154.488372 C51.1897117,154.232558 50.6657398,154.104651 50.130124,154.104651 C49.1287555,154.104651 47.1143745,154.697674 44.0869811,155.883721 C43.7143788,155.55814 43.248626,155.395349 42.6897226,155.395349 C42.0842439,155.395349 41.5020529,155.593023 40.9431495,155.988372 C40.3143832,156.406977 40,156.895349 40,157.453488 C40,157.848837 40.2445202,158.44186 40.7335607,159.232558 C40.6404101,162.837209 40.780136,169.651163 41.1527383,179.674419 C40.9431495,179.953488 40.8383551,180.267442 40.8383551,180.616279 C40.8383551,181.360465 41.2051354,182.081395 41.9386962,182.77907 C42.6722569,183.476744 43.4349271,183.825581 44.2267069,183.825581 Z M45.4842396,175.837209 C45.2047879,172.627907 45.065062,169.511628 45.065062,166.488372 C45.065062,164.372093 45.1349249,162.44186 45.2746508,160.697674 C47.3938262,159.023256 48.8143723,158.186047 49.5362892,158.186047 C49.9088914,158.186047 50.2116308,158.325581 50.4445072,158.604651 C50.5376578,158.72093 50.5842331,158.94186 50.5842331,159.267442 C50.5842331,160.453488 50.0253297,162.825581 48.9075229,166.383721 C47.859579,169.686047 46.7184846,172.837209 45.4842396,175.837209 Z M60.2602481,183.302326 C61.4712054,183.302326 62.2746291,182.860465 62.670519,181.976744 C62.8335325,181.627907 62.9150392,181.313953 62.9150392,181.034884 C62.9150392,180.755814 62.7694915,180.354651 62.4783959,179.831395 C62.1873004,179.30814 62.0417527,178.790698 62.0417527,178.27907 L62.0417527,178.27907 L62.0417527,172.976744 L67.735581,166.418605 C67.9917451,166.116279 68.5855799,165.848837 69.5170856,165.616279 C70.3088654,165.430233 70.7513306,165.093023 70.8444811,164.604651 C70.8677688,164.488372 70.8794126,164.372093 70.8794126,164.255814 C70.8794126,163.581395 70.5126322,163.034884 69.7790715,162.616279 C69.0455108,162.197674 68.2828406,162.023256 67.4910608,162.093023 C66.9787326,162.139535 66.5304455,162.360465 66.1461995,162.755814 C65.7619534,163.151163 65.395173,163.546512 65.0458584,163.94186 L65.0458584,163.94186 L62.0417527,167.116279 L61.9718897,165.860465 C61.9718897,165.72093 62.0650403,165.581395 62.2513414,165.44186 C62.4376426,165.302326 62.5307931,165.104651 62.5307931,164.848837 C62.5307931,164.686047 62.4958617,164.488372 62.4259987,164.255814 C62.2629852,163.674419 61.564356,163.383721 60.330111,163.383721 C58.7465514,163.383721 57.8034019,163.662791 57.5006626,164.22093 C57.407512,164.406977 57.3609367,164.569767 57.3609367,164.709302 C57.3609367,164.895349 57.4540873,165.139535 57.6403884,165.44186 C57.8266895,165.744186 57.9198401,166 57.9198401,166.209302 L57.9198401,166.209302 L57.9198401,179.255814 C57.9198401,179.511628 57.8965525,179.848837 57.8499772,180.267442 C57.8034019,180.686047 57.7801143,180.988372 57.7801143,181.174419 C57.7801143,181.709302 57.9431278,182.151163 58.2691547,182.5 C58.7581952,183.034884 59.421893,183.302326 60.2602481,183.302326 Z M77.9006365,183.267442 C80.0663872,183.267442 81.766385,182.116279 83.00063,179.813953 C84.0951491,177.767442 84.6424087,175.290698 84.6424087,172.383721 C84.6424087,168.639535 83.8622727,165.976744 82.3020007,164.395349 C81.1609063,163.232558 79.6937849,162.651163 77.9006365,162.651163 C77.1787196,162.651163 76.4800904,162.744186 75.8047488,162.930233 C74.5006408,163.302326 73.4294093,164.534884 72.5910542,166.627907 C71.7992744,168.581395 71.4033845,170.790698 71.4033845,173.255814 C71.4033845,176.046512 71.9157126,178.348837 72.9403689,180.162791 C74.1047509,182.232558 75.7581735,183.267442 77.9006365,183.267442 Z M77.9854229,179.890287 L77.9006365,179.883721 C76.8759803,179.72093 76.2006387,178.825581 75.8746117,177.197674 C75.6883106,176.290698 75.59516,174.744186 75.59516,172.55814 C75.59516,171.046512 75.8396802,169.604651 76.3287207,168.232558 C76.8876241,166.72093 77.5513219,166 78.319814,166.069767 C79.7869355,166.209302 80.5204962,167.976744 80.5204962,171.372093 C80.5204962,173.44186 80.2526883,175.383721 79.7170725,177.197674 C79.1581691,179.081395 78.5526905,179.976744 77.9006365,179.883721 L77.9854229,179.890287 Z M89.7074707,190 C91.1280169,190 92.0828102,189.476744 92.5718506,188.430233 C92.6882888,188.197674 92.7465079,187.965116 92.7465079,187.732558 C92.7465079,187.430233 92.5951383,186.988372 92.2923989,186.406977 C91.9896596,185.825581 91.8382899,185.348837 91.8382899,184.976744 L91.8382899,184.976744 L91.8382899,180.511628 C92.8396585,182.023256 93.8177394,182.77907 94.7725327,182.77907 C96.4725306,182.77907 97.9047205,181.686047 99.0691026,179.5 C100.117046,177.476744 100.641018,175.232558 100.641018,172.767442 C100.641018,170.093023 100.303348,167.906977 99.628006,166.209302 C98.7430756,164.023256 97.3341733,162.930233 95.4012991,162.930233 C93.9574653,162.930233 92.6999327,163.697674 91.6287011,165.232558 C91.6519888,165.046512 91.7218517,164.77907 91.8382899,164.430233 C91.9547281,164.081395 92.0129472,163.825581 92.0129472,163.662791 C92.0129472,163.453488 91.9547281,163.27907 91.8382899,163.139535 C91.5355506,162.767442 90.9300719,162.581395 90.0218539,162.581395 C88.5780201,162.581395 87.7163774,162.906977 87.4369257,163.55814 C87.3437751,163.767442 87.2971998,163.965116 87.2971998,164.151163 C87.2971998,164.383721 87.3903504,164.680233 87.5766515,165.040698 C87.7629527,165.401163 87.8561032,165.709302 87.8561032,165.965116 L87.8561032,165.965116 L87.8561032,185.813953 C87.8561032,186.116279 87.7804184,186.482558 87.6290487,186.912791 L87.5688098,187.091837 C87.4575994,187.43925 87.4019942,187.722591 87.4019942,187.94186 C87.4019942,188.197674 87.4485695,188.465116 87.5417201,188.744186 C87.8211718,189.581395 88.5430887,190 89.7074707,190 Z M94.3533552,178.837209 C93.8876024,178.837209 93.4218495,178.069767 92.9560967,176.534884 C92.4903439,175.093023 92.2574675,173.837209 92.2574675,172.767442 C92.2574675,171.348837 92.4728782,169.912791 92.9036995,168.459302 C93.3345209,167.005814 93.8177394,166.27907 94.3533552,166.27907 C95.2848609,166.27907 95.8670519,167.034884 96.0999283,168.546512 C96.1930789,169.151163 96.2396542,170.55814 96.2396542,172.767442 C96.2396542,174.162791 96.0766407,175.476744 95.7506137,176.709302 C95.3780114,178.127907 94.9122586,178.837209 94.3533552,178.837209 Z M117.128669,183.267442 C119.294419,183.267442 120.994417,182.116279 122.228662,179.813953 C123.323181,177.767442 123.870441,175.290698 123.870441,172.383721 C123.870441,168.639535 123.090305,165.976744 121.530033,164.395349 C120.388938,163.232558 118.921817,162.651163 117.128669,162.651163 C116.406752,162.651163 115.708122,162.744186 115.032781,162.930233 C113.728673,163.302326 112.657441,164.534884 111.819086,166.627907 C111.027306,168.581395 110.631417,170.790698 110.631417,173.255814 C110.631417,176.046512 111.143745,178.348837 112.168401,180.162791 C113.332783,182.232558 114.986206,183.267442 117.128669,183.267442 Z M117.213455,179.890287 L117.128669,179.883721 C116.104012,179.72093 115.428671,178.825581 115.102644,177.197674 C114.916343,176.290698 114.823192,174.744186 114.823192,172.55814 C114.823192,171.046512 115.067712,169.604651 115.556753,168.232558 C116.115656,166.72093 116.779354,166 117.547846,166.069767 C119.014968,166.209302 119.748528,167.976744 119.748528,171.372093 C119.748528,173.44186 119.48072,175.383721 118.945105,177.197674 C118.386201,179.081395 117.780723,179.976744 117.128669,179.883721 L117.213455,179.890287 Z M129.319749,183.895349 C130.577282,183.895349 131.438924,183.453488 131.904677,182.569767 C132.021115,182.360465 132.079334,182.127907 132.079334,181.872093 C132.079334,181.616279 131.980362,181.203488 131.782417,180.633721 C131.584472,180.063953 131.4855,179.604651 131.4855,179.255814 L131.4855,179.255814 L131.4855,158.325581 C131.4855,157.953488 131.57865,157.47093 131.764951,156.877907 C131.951252,156.284884 132.044403,155.860465 132.044403,155.604651 C132.044403,155.232558 131.916321,154.872093 131.660157,154.523256 C131.403993,154.174419 130.798514,154 129.843721,154 C129.191667,154 128.574544,154.098837 127.992353,154.296512 C127.410162,154.494186 127.084135,154.744186 127.014272,155.046512 L127.014272,155.046512 L127.014272,156.930233 L127.153998,179.465116 C127.153998,179.813953 127.072491,180.255814 126.909478,180.790698 C126.746464,181.325581 126.664958,181.709302 126.664958,181.94186 C126.664958,182.22093 126.734821,182.476744 126.874547,182.709302 C127.340299,183.5 128.155367,183.895349 129.319749,183.895349 Z M138.19234,161.674419 C138.634805,161.674419 139.001586,161.598837 139.292681,161.447674 C139.583777,161.296512 139.729325,160.976744 139.729325,160.488372 C139.636174,159.697674 139.612886,159.186047 139.659462,158.953488 C139.706037,158.72093 139.810831,158.290698 139.973845,157.662791 C140.113571,157.151163 140.183434,156.790698 140.183434,156.581395 C140.183434,156.418605 140.148502,156.302326 140.078639,156.232558 C139.659462,155.813953 138.925901,155.604651 137.877957,155.604651 C136.923164,155.604651 136.259466,155.744186 135.886864,156.023256 C135.607412,156.232558 135.490974,156.627907 135.537549,157.209302 C135.584124,157.953488 135.584124,158.418605 135.537549,158.604651 C135.514262,158.790698 135.432755,159.02907 135.293029,159.319767 C135.153303,159.610465 135.08344,159.837209 135.08344,160 C135.08344,160.534884 135.47933,160.965116 136.27111,161.290698 C136.923164,161.546512 137.563574,161.674419 138.19234,161.674419 Z M137.773163,183.546512 C138.448504,183.546512 139.077271,183.360465 139.659462,182.988372 C140.032064,182.755814 140.218365,182.406977 140.218365,181.94186 C140.218365,181.616279 140.090283,181.02907 139.834119,180.180233 C139.577955,179.331395 139.449873,178.674419 139.449873,178.209302 L139.449873,178.209302 L139.449873,167.953488 C139.449873,167.511628 139.630352,166.947674 139.991311,166.261628 C140.352269,165.575581 140.532748,165.069767 140.532748,164.744186 C140.532748,164.488372 140.44542,164.232558 140.270762,163.976744 C140.096105,163.72093 139.694393,163.494186 139.065627,163.296512 C138.436861,163.098837 137.808094,163 137.179328,163 C136.550562,163 136.11974,163.116279 135.886864,163.348837 C135.32796,163.906977 135.048509,164.569767 135.048509,165.337209 C135.048509,165.569767 135.08344,165.947674 135.153303,166.47093 C135.223166,166.994186 135.258097,167.418605 135.258097,167.744186 C135.258097,168.604651 135.240632,169.97093 135.2057,171.843023 L135.198947,172.210853 C135.172865,173.655814 135.157961,174.784496 135.154235,175.596899 L135.154175,176.353994 C135.170457,179.82583 135.414687,181.92101 135.886864,182.639535 C136.259466,183.244186 136.888232,183.546512 137.773163,183.546512 Z M148.182738,183.197674 C149.114244,183.267442 150.220407,183.05814 151.501227,182.569767 C152.619034,182.151163 153.259444,181.813953 153.422458,181.55814 C154.493689,180.55814 155.122456,179.616279 155.308757,178.732558 C155.425195,178.151163 155.221428,177.587209 154.697456,177.040698 C154.173484,176.494186 153.632047,176.22093 153.073143,176.22093 C152.886842,176.22093 152.723829,176.255814 152.584103,176.325581 C152.188213,176.534884 151.943693,176.877907 151.850542,177.354651 C151.757391,177.831395 151.664241,178.093023 151.57109,178.139535 C151.384789,178.465116 151.035475,178.802326 150.523146,179.151163 C149.917668,179.569767 149.347121,179.77907 148.811505,179.77907 C148.252601,179.77907 147.810136,179.488372 147.484109,178.906977 C147.344383,178.627907 147.146438,178.023256 146.890274,177.093023 C149.219039,176.27907 151.128625,174.860465 152.619034,172.837209 C153.993005,171 154.610128,169.302326 154.470402,167.744186 C154.19095,164.348837 152.665609,162.651163 149.89438,162.651163 C149.545065,162.651163 149.184107,162.674419 148.811505,162.72093 C146.901918,163 145.376578,164.27907 144.235483,166.55814 C143.210827,168.627907 142.698499,171.034884 142.698499,173.77907 C142.698499,176.313953 143.152608,178.453488 144.060826,180.197674 C145.062195,182.081395 146.436165,183.081395 148.182738,183.197674 Z M146.610823,173.674419 C146.471097,171.953488 146.78548,170.209302 147.553972,168.44186 C148.136163,167.116279 148.893012,166.453488 149.824517,166.453488 C150.639585,166.453488 151.047118,166.906977 151.047118,167.813953 C151.047118,168.813953 150.581366,169.953488 149.64986,171.232558 C148.718354,172.511628 147.705342,173.325581 146.610823,173.674419 Z M158.420523,177.743121 C158.451536,180.82937 158.60195,182.484763 158.871766,182.709302 C159.826559,183.616279 160.723133,184.069767 161.561488,184.069767 C162.050529,184.069767 162.51046,183.895349 162.941281,183.546512 C163.372103,183.197674 163.599157,182.604651 163.622445,181.767442 L163.622445,181.767442 L163.622445,179.674419 C165.881346,173.162791 167.301892,169.953488 167.884083,170.046512 C168.489562,170.139535 168.699151,173.767442 168.512849,180.930233 C168.932027,181.651163 169.712163,182.011628 170.853257,182.011628 C171.62175,182.011628 172.320379,181.831395 172.949145,181.47093 C173.577911,181.110465 173.915582,180.674419 173.962158,180.162791 C173.985445,179.813953 173.915582,179.523256 173.752569,179.290698 C173.473117,178.872093 173.310104,178.581395 173.263528,178.418605 L173.263528,178.418605 L173.263528,172.139535 C173.240241,169.488372 173.065583,167.488372 172.739556,166.139535 C172.320379,164.348837 171.610106,163.418605 170.608737,163.348837 C168.932027,163.232558 167.429974,164.034884 166.102579,165.755814 C165.357374,166.755814 164.251211,168.813953 162.78409,171.930233 L162.78409,171.930233 L162.78409,167.116279 C162.78409,166.837209 162.87724,166.488372 163.063541,166.069767 C163.249843,165.651163 163.342993,165.325581 163.342993,165.093023 C163.342993,164.860465 163.296418,164.627907 163.203267,164.395349 C163.063541,164.046512 162.650186,163.680233 161.9632,163.296512 C161.276215,162.912791 160.618339,162.72093 159.989573,162.72093 C159.384094,162.72093 158.941629,162.930233 158.662177,163.348837 C158.429301,163.674419 158.312863,164.05814 158.312863,164.5 C158.312863,164.662791 158.33615,164.924419 158.382725,165.284884 C158.429301,165.645349 158.452588,165.930233 158.452588,166.139535 C158.452588,175.389795 158.441629,179.200855 158.419711,177.572715 L158.418655,177.531561 L158.420523,177.743121 Z M175.603936,186.965116 C175.976539,186.94186 176.500511,186.476744 177.175852,185.569767 C177.851194,184.662791 178.526535,183.755814 179.201877,182.848837 C179.76078,182.197674 180.040232,181.674419 180.040232,181.27907 C180.040232,181.139535 180.016944,180.976744 179.970369,180.790698 C179.900506,180.418605 179.54537,180.087209 178.904959,179.796512 C178.264549,179.505814 177.676536,179.360465 177.140921,179.360465 C176.814894,179.360465 176.582017,179.430233 176.442291,179.569767 C176.302566,179.709302 176.215237,179.994186 176.180305,180.424419 C176.145374,180.854651 176.058045,181.162791 175.918319,181.348837 C175.732018,181.953488 175.260444,182.633721 174.503595,183.389535 C173.746747,184.145349 173.368323,184.546512 173.368323,184.593023 C173.251885,185.127907 173.473117,185.662791 174.032021,186.197674 C174.590924,186.732558 175.114896,186.988372 175.603936,186.965116 Z M195.340212,183.825581 C196.900484,183.825581 198.62377,182.069767 200.510069,178.55814 C202.070341,175.604651 203.467599,172.034884 204.701844,167.848837 C205.866226,163.94186 206.401842,161.209302 206.308692,159.651163 C206.238829,158.581395 205.808007,157.511628 205.016227,156.44186 C204.317598,155.511628 203.584038,154.860465 202.815545,154.488372 C202.303217,154.232558 201.779245,154.104651 201.24363,154.104651 C200.242261,154.104651 198.22788,154.697674 195.200487,155.883721 C194.827884,155.55814 194.362132,155.395349 193.803228,155.395349 C193.197749,155.395349 192.615558,155.593023 192.056655,155.988372 C191.427889,156.406977 191.113506,156.895349 191.113506,157.453488 C191.113506,157.848837 191.358026,158.44186 191.847066,159.232558 C191.753916,162.837209 191.893642,169.651163 192.266244,179.674419 C192.056655,179.953488 191.951861,180.267442 191.951861,180.616279 C191.951861,181.360465 192.318641,182.081395 193.052202,182.77907 C193.785762,183.476744 194.548433,183.825581 195.340212,183.825581 Z M196.597745,175.837209 C196.318293,172.627907 196.178568,169.511628 196.178568,166.488372 C196.178568,164.372093 196.24843,162.44186 196.388156,160.697674 C198.507332,159.023256 199.927878,158.186047 200.649795,158.186047 C201.022397,158.186047 201.325136,158.325581 201.558013,158.604651 C201.651163,158.72093 201.697739,158.94186 201.697739,159.267442 C201.697739,160.453488 201.138835,162.825581 200.021028,166.383721 C198.973085,169.686047 197.83199,172.837209 196.597745,175.837209 Z M210.954576,183.616279 C212.305259,183.616279 213.644299,182.959302 214.971694,181.645349 C216.29909,180.331395 216.997719,179.034884 217.067582,177.755814 C217.347034,178.5 217.626485,179.534884 217.905937,180.860465 C218.045663,181.627907 218.301827,182.139535 218.674429,182.395349 C218.953881,182.55814 219.326483,182.639535 219.792236,182.639535 C221.166207,182.639535 222.02785,182.069767 222.377164,180.930233 C222.423739,180.767442 222.447027,180.604651 222.447027,180.44186 C222.447027,180.093023 222.27237,179.686047 221.923055,179.22093 C221.573741,178.755814 221.375796,178.372093 221.32922,178.069767 C221.026481,176.534884 220.770317,174.104651 220.560728,170.77907 C220.374427,168.034884 220.094975,166.162791 219.722373,165.162791 C219.140182,163.674419 218.068951,162.930233 216.508679,162.930233 C214.063476,162.930233 212.025808,163.418605 210.395673,164.395349 C209.324441,165.046512 208.521018,165.813953 207.985402,166.697674 C207.799101,167 207.70595,167.337209 207.70595,167.709302 C207.70595,168.360465 207.95047,168.930233 208.439511,169.418605 C208.928551,169.906977 209.475811,170.116279 210.08129,170.046512 C210.500467,170 210.884713,169.709302 211.234028,169.174419 C211.676493,168.5 212.037451,168.069767 212.316903,167.883721 L212.316903,167.883721 L213.207655,166.994186 C213.522039,166.680233 213.92375,166.523256 214.412791,166.523256 C214.692243,166.523256 215.029913,166.587209 215.425803,166.715116 C215.821693,166.843023 216.019638,167.267442 216.019638,167.988372 C216.019638,168.360465 215.973063,168.744186 215.879912,169.139535 C214.040189,170.186047 212.212109,171.244186 210.395673,172.313953 C208.183347,173.848837 207.077184,175.697674 207.077184,177.860465 C207.077184,178.604651 207.193622,179.395349 207.426498,180.232558 C208.078552,182.488372 209.254578,183.616279 210.954576,183.616279 Z M212.456629,179.744186 C212.177177,179.744186 211.921013,179.581395 211.688137,179.255814 C211.268959,178.651163 211.05937,178.069767 211.05937,177.511628 C211.05937,176.837209 211.478548,176.023256 212.316903,175.069767 C212.899094,174.418605 213.533682,173.895349 214.220668,173.5 C214.907653,173.104651 215.600461,172.72093 216.29909,172.348837 C215.763474,174.581395 215.14053,176.372093 214.430257,177.72093 C213.719983,179.069767 213.062108,179.744186 212.456629,179.744186 Z M225.453999,177.743121 C225.485012,180.82937 225.635426,182.484763 225.905242,182.709302 C226.860035,183.616279 227.756609,184.069767 228.594964,184.069767 C229.084005,184.069767 229.543936,183.895349 229.974757,183.546512 C230.405579,183.197674 230.632633,182.604651 230.655921,181.767442 L230.655921,181.767442 L230.655921,179.674419 C232.914822,173.162791 234.335368,169.953488 234.917559,170.046512 C235.523038,170.139535 235.732627,173.767442 235.546325,180.930233 C235.965503,181.651163 236.745639,182.011628 237.886733,182.011628 C238.655226,182.011628 239.353855,181.831395 239.982621,181.47093 C240.611387,181.110465 240.949058,180.674419 240.995634,180.162791 C241.018921,179.813953 240.949058,179.523256 240.786045,179.290698 C240.506593,178.872093 240.34358,178.581395 240.297004,178.418605 L240.297004,178.418605 L240.297004,172.139535 C240.273717,169.488372 240.099059,167.488372 239.773032,166.139535 C239.353855,164.348837 238.643582,163.418605 237.642213,163.348837 C235.965503,163.232558 234.46345,164.034884 233.136055,165.755814 C232.39085,166.755814 231.284687,168.813953 229.817566,171.930233 L229.817566,171.930233 L229.817566,167.116279 C229.817566,166.837209 229.910716,166.488372 230.097017,166.069767 C230.283318,165.651163 230.376469,165.325581 230.376469,165.093023 C230.376469,164.860465 230.329894,164.627907 230.236743,164.395349 C230.097017,164.046512 229.683662,163.680233 228.996676,163.296512 C228.309691,162.912791 227.651815,162.72093 227.023049,162.72093 C226.41757,162.72093 225.975105,162.930233 225.695653,163.348837 C225.462777,163.674419 225.346338,164.05814 225.346338,164.5 C225.346338,164.662791 225.369626,164.924419 225.416201,165.284884 C225.462777,165.645349 225.486064,165.930233 225.486064,166.139535 C225.486064,175.389795 225.475105,179.200855 225.453187,177.572715 L225.452131,177.531561 L225.453999,177.743121 Z" id="Dropolien,Dan" fill="#000000" fill-rule="nonzero"></path>
        <rect id="Rectangle" stroke="#45413C" stroke-width="3" x="39.5" y="218.5" width="32" height="33"></rect>
        <rect id="Rectangle" stroke="#45413C" stroke-width="3" x="132.5" y="218.5" width="31" height="33"></rect>
        <path d="M88.7787611,249.859075 C89.6519174,249.976512 90.5132743,249.735765 91.3628319,249.136834 C92.2123894,248.537902 92.6961652,247.921355 92.8141593,247.287192 C93.1917404,245.361215 93.4159292,241.098231 93.4867257,234.498238 C93.5339233,228.297534 93.5929204,225.138463 93.6637168,225.021025 C93.6637168,224.762662 93.8466077,224.486684 94.2123894,224.19309 C94.5781711,223.899496 94.7728614,223.494336 94.7964602,222.977611 C94.820059,222.249498 94.2300885,221.533129 93.0265487,220.828503 C91.9174041,220.19434 91.0914454,219.924234 90.5486726,220.018184 C89.2979351,220.253059 88.6725664,220.887222 88.6725664,221.920673 C88.6725664,222.085085 88.6902655,222.384551 88.7256637,222.81907 C88.7610619,223.253589 88.7787611,223.588287 88.7787611,223.823162 C88.8495575,226.571201 88.8849558,229.28401 88.8849558,231.961587 C88.8849558,240.135243 88.5427729,244.210327 87.8584071,244.186839 C87.5516224,244.163352 87.2861357,243.869758 87.0619469,243.306058 C86.8377581,242.742357 86.6312684,242.1904 86.4424779,241.650188 C86.2772861,241.368337 86.1474926,240.792893 86.0530973,239.923855 C85.9823009,239.266204 85.7345133,238.761223 85.3097345,238.40891 C85.1917404,238.31496 84.8377581,238.267985 84.2477876,238.267985 C83.280236,238.267985 82.3716814,238.373679 81.5221239,238.585066 C80.5073746,238.843429 80,239.183998 80,239.606773 C80,240.264424 80.159292,240.728302 80.4778761,240.998409 C80.7964602,241.268515 81.1091445,241.53275 81.4159292,241.791113 C83.3274336,244.727052 84.5899705,246.582566 85.2035398,247.357654 C86.4778761,248.884343 87.6696165,249.71815 88.7787611,249.859075 Z M100.353982,250 C101.722714,250 103.079646,249.336478 104.424779,248.009433 C105.769912,246.682388 106.477876,245.372959 106.548673,244.081146 C106.831858,244.832746 107.115044,245.877941 107.39823,247.216729 C107.539823,247.991817 107.79941,248.508543 108.176991,248.766905 C108.460177,248.931318 108.837758,249.013524 109.309735,249.013524 C110.702065,249.013524 111.575221,248.43808 111.929204,247.287192 C111.976401,247.122779 112,246.958366 112,246.793954 C112,246.441641 111.823009,246.03061 111.469027,245.560859 C111.115044,245.091109 110.914454,244.703565 110.867257,244.398227 C110.560472,242.848051 110.300885,240.393605 110.088496,237.03489 C109.899705,234.263363 109.616519,232.372618 109.238938,231.362655 C108.648968,229.859454 107.563422,229.107853 105.982301,229.107853 C103.504425,229.107853 101.439528,229.601091 99.7876106,230.587567 C98.7020649,231.245217 97.8879056,232.020305 97.3451327,232.912831 C97.1563422,233.218169 97.0619469,233.558738 97.0619469,233.934538 C97.0619469,234.592189 97.3097345,235.167633 97.8053097,235.660871 C98.300885,236.154108 98.8554572,236.365496 99.4690265,236.295034 C99.8938053,236.248058 100.283186,235.954465 100.637168,235.414252 C101.085546,234.733114 101.451327,234.298595 101.734513,234.110694 L101.734513,234.110694 L102.637168,233.212297 C102.955752,232.895215 103.362832,232.736675 103.858407,232.736675 C104.141593,232.736675 104.483776,232.801265 104.884956,232.930447 C105.286136,233.059628 105.486726,233.488275 105.486726,234.216388 C105.486726,234.592189 105.439528,234.979733 105.345133,235.37902 C103.480826,236.435959 101.628319,237.504641 99.7876106,238.585066 C97.5457227,240.135243 96.4247788,242.0025 96.4247788,244.186839 C96.4247788,244.93844 96.5427729,245.737016 96.7787611,246.582566 C97.439528,248.860855 98.6312684,250 100.353982,250 Z M101.876106,246.089328 C101.59292,246.089328 101.333333,245.924916 101.097345,245.59609 C100.672566,244.985415 100.460177,244.398227 100.460177,243.834527 C100.460177,243.153389 100.884956,242.331326 101.734513,241.368337 C102.324484,240.710687 102.967552,240.182218 103.663717,239.78293 C104.359882,239.383642 105.061947,238.996098 105.769912,238.620298 C105.227139,240.875099 104.59587,242.683638 103.876106,244.045914 C103.156342,245.40819 102.489676,246.089328 101.876106,246.089328 Z" id="Ja" fill="#000000" fill-rule="nonzero"></path>
        <path d="M177.033362,249.9225 C177.828343,249.9225 178.424579,249.665253 178.82207,249.150759 C179.102652,248.799967 179.242943,248.414097 179.242943,247.993147 C179.242943,247.665742 179.126034,247.256486 178.892216,246.765378 C178.658397,246.27427 178.541488,245.958558 178.541488,245.818241 C178.073852,239.223364 177.886798,234.733235 177.980325,232.347854 C178.82207,234.359058 180.131451,236.861369 181.908469,239.854789 C182.633305,241.094251 183.428286,242.380486 184.293413,243.713493 C184.480468,244.064285 184.597377,244.520313 184.64414,245.081579 C184.667522,245.713004 184.737668,246.169032 184.854577,246.449666 C185.579413,248.27378 186.935557,249.244303 188.923011,249.361233 C189.717993,249.408006 190.384374,249.144912 190.922156,248.571953 C191.459937,247.998994 191.75221,247.291565 191.798973,246.449666 C191.822355,246.098874 191.664528,245.672078 191.325492,245.169277 C190.986456,244.666476 190.816938,244.251373 190.816938,243.923968 L190.816938,243.923968 L190.32592,224.700604 C190.32592,224.443357 190.51882,224.18611 190.904619,223.928863 C191.290419,223.671616 191.471628,223.320824 191.448246,222.876489 C191.424865,222.174906 190.957228,221.520096 190.045338,220.912057 C189.133447,220.304019 188.244939,220 187.379812,220 C186.84203,220 186.444539,220.140317 186.18734,220.42095 C185.719703,220.888671 185.485885,221.274542 185.485885,221.578561 C185.485885,221.718877 185.567722,221.917659 185.731394,222.174906 C185.895067,222.432153 185.976903,222.666014 185.976903,222.876489 L185.976903,222.876489 L186.397776,239.995105 C181.955232,232.371241 179.500143,227.366618 179.032506,224.981237 C179.009125,224.911078 178.997434,224.84092 178.997434,224.770762 C178.997434,224.677218 179.020816,224.513515 179.067579,224.279654 C179.114343,224.045793 179.137725,223.858705 179.137725,223.718388 C179.137725,223.390983 179.032506,223.11035 178.82207,222.876489 C178.073852,221.964431 176.822926,221.508403 175.06929,221.508403 C174.414599,221.508403 173.906045,221.61364 173.543627,221.824115 C173.181209,222.03459 173,222.315223 173,222.666014 C173,222.782944 173.023382,222.95834 173.070145,223.192201 C173.116909,223.426062 173.140291,223.601458 173.140291,223.718388 L173.140291,223.718388 L174.192472,245.186817 C174.215854,245.420678 174.04049,245.689618 173.666382,245.993637 C173.292273,246.297656 173.140291,246.730299 173.210436,247.291565 C173.303964,247.993147 173.754063,248.607032 174.560736,249.133219 C175.367408,249.659406 176.191617,249.9225 177.033362,249.9225 Z M199.023952,249.782183 C199.959224,249.852341 201.06986,249.641867 202.35586,249.150759 C203.478186,248.729809 204.121186,248.390711 204.284859,248.133464 C205.360422,247.127862 205.991731,246.180726 206.178785,245.292054 C206.295694,244.707402 206.091104,244.140289 205.565013,243.590716 C205.038922,243.041143 204.495295,242.766357 203.934132,242.766357 C203.747077,242.766357 203.583405,242.801436 203.443114,242.871594 C203.045623,243.082069 202.800114,243.427014 202.706587,243.906428 C202.61306,244.385843 202.519532,244.648937 202.426005,244.695709 C202.238951,245.023114 201.888224,245.362212 201.373824,245.713004 C200.765897,246.133953 200.193042,246.344428 199.655261,246.344428 C199.094098,246.344428 198.649843,246.052102 198.322498,245.46745 C198.182207,245.186817 197.983462,244.578778 197.726262,243.643335 C200.064443,242.824822 201.981751,241.398271 203.478186,239.363681 C204.857713,237.51618 205.477331,235.808995 205.33704,234.242128 C205.056459,230.827759 203.52495,229.120574 200.742515,229.120574 C200.391788,229.120574 200.02937,229.14396 199.655261,229.190733 C197.737953,229.471366 196.206444,230.7576 195.060736,233.049437 C194.031936,235.130799 193.517536,237.551259 193.517536,240.310817 C193.517536,242.859901 193.973482,245.011421 194.885372,246.765378 C195.89079,248.659651 197.270317,249.665253 199.023952,249.782183 Z M197.44568,240.20558 C197.305389,238.47501 197.621044,236.721053 198.392643,234.94371 C198.977188,233.610703 199.737097,232.9442 200.67237,232.9442 C201.490733,232.9442 201.899914,233.400228 201.899914,234.312286 C201.899914,235.317888 201.432278,236.463806 200.497006,237.750041 C199.561734,239.036276 198.544625,239.854789 197.44568,240.20558 Z M212.421728,228.48915 C213.169946,228.48915 213.625891,228.302061 213.789564,227.927884 C213.859709,227.764181 213.894782,227.612172 213.894782,227.471855 C213.894782,227.331539 213.842173,227.14445 213.736955,226.910589 C213.631737,226.676728 213.579127,226.45456 213.579127,226.244085 C213.555746,226.010225 213.6142,225.659433 213.754491,225.191712 C213.894782,224.72399 213.964927,224.384891 213.964927,224.174417 C213.964927,223.683309 213.7428,223.285745 213.298546,222.981726 C212.854291,222.677707 212.386655,222.525698 211.895637,222.525698 C211.28771,222.525698 210.796692,222.712786 210.422583,223.086964 C210.142002,223.344211 210.001711,223.741774 210.001711,224.279654 C210.001711,224.466743 210.025093,224.747376 210.071856,225.121553 C210.11862,225.495731 210.142002,225.752978 210.142002,225.893294 C210.142002,225.986839 210.106929,226.162234 210.036784,226.419481 C209.966638,226.676728 209.931565,226.87551 209.931565,227.015826 C209.931565,227.483548 210.24722,227.857726 210.878529,228.138359 C211.369547,228.37222 211.883946,228.48915 212.421728,228.48915 Z M206.915312,254.500326 C207.780439,254.909583 208.575421,255.067439 209.300257,254.973895 C210.960365,254.76342 212.164528,253.360255 212.912746,250.764399 C213.417793,249.038505 213.714508,246.668559 213.802891,243.65456 L213.808603,243.43286 L213.808603,243.428851 C213.798768,243.268601 213.792746,241.578343 213.790538,238.358079 L213.789564,235.119106 C213.789564,234.744928 213.824636,234.201202 213.894782,233.487926 C213.964927,232.774651 214,232.230924 214,231.856747 C214,231.06162 213.789564,230.453581 213.368691,230.032632 C212.854291,229.518138 212.035928,229.260891 210.913601,229.260891 C209.60422,229.260891 208.94953,229.670147 208.94953,230.48866 C208.94953,230.745907 209.019675,231.137624 209.159966,231.663811 C209.300257,232.189998 209.370402,232.558329 209.370402,232.768804 C209.417166,235.36466 209.440547,237.586338 209.440547,239.433839 C209.440547,247.361723 209.066439,251.582912 208.318221,252.097406 C208.107784,252.237722 207.704448,252.261108 207.108212,252.167564 C206.511976,252.07402 206.085258,252.19095 205.828058,252.518355 C205.687767,252.705444 205.617622,252.892533 205.617622,253.079621 C205.617622,253.617501 206.050185,254.09107 206.915312,254.500326 Z" id="Nej" fill="#000000" fill-rule="nonzero"></path>
    </g>
</svg>