<?xml version="1.0" encoding="UTF-8"?>
<svg width="356px" height="476px" viewBox="0 0 356 476" version="1.1" xmlns="http://www.w3.org/2000/svg" xmlns:xlink="http://www.w3.org/1999/xlink">
    <!-- Generator: Sketch 62 (91390) - https://sketch.com -->
    <title>olieplatform</title>
    <desc>Created with Sketch.</desc>
    <defs>
        <polygon id="path-1" points="2.84217094e-14 468.302 355.554 471.8369 355.554 2.55795385e-13 2.84217094e-14 2.55795385e-13"></polygon>
    </defs>
    <g id="Page-1" stroke="none" stroke-width="1" fill="none" fill-rule="evenodd">
        <path d="M232.8777,301.5028 L232.8777,118.8348 L232.8777,301.5028 Z" id="Fill-1" fill="#FFFFFF"></path>
        <line x1="232.8781" y1="301.5027" x2="232.8781" y2="118.8347" id="Stroke-2" stroke="#45413C" stroke-width="7" stroke-linecap="round" stroke-linejoin="round"></line>
        <path d="M232.8781,111.9895 L232.8781,323.0305 C232.8781,328.0295 228.8261,332.0815 223.8271,332.0815 L219.3011,332.0815 C214.3021,332.0815 210.2501,328.0295 210.2501,323.0305 L210.2501,111.9895 L232.8781,111.9895 Z" id="Fill-3" fill="#87898C"></path>
        <path d="M232.8781,111.9895 L232.8781,323.0305 C232.8781,328.0295 228.8261,332.0815 223.8271,332.0815 L219.3011,332.0815 C214.3021,332.0815 210.2501,328.0295 210.2501,323.0305 L210.2501,111.9895 L232.8781,111.9895 Z" id="Stroke-5" stroke="#45413C" stroke-width="7" stroke-linecap="round" stroke-linejoin="round"></path>
        <rect id="Rectangle" stroke="#45413C" stroke-width="7" fill="#87898C" x="170.5" y="383.5" width="22" height="89"></rect>
        <rect id="Rectangle" stroke="#45413C" stroke-width="7" fill="#87898C" x="89.5" y="383.5" width="22" height="89"></rect>
        <rect id="Rectangle" stroke="#45413C" stroke-width="7" fill="#87898C" x="250.5" y="383.5" width="22" height="89"></rect>
        <path d="M55.549,192.8117 C55.098,191.2007 55.354,189.4737 56.252,188.0617 L69.571,167.1327 C70.957,164.9547 71.186,162.2347 70.182,159.8567 L58.352,131.8247 C57.287,129.3017 57.613,126.4057 59.211,124.1827 L69.682,109.6137 C70.8003765,108.0577 70.645,105.9267 69.3,104.5607 C64.46,99.6447 58.118,94.3627 51.311,91.8167 C37.481,86.6447 3.5,89.3527 3.5,126.8787 C3.5,157.4567 35.144,192.0577 57.299,212.5407 C58.751,213.8837 61.042,212.4537 60.51,210.5487 L55.549,192.8117 Z" id="Fill-51" fill="#45414A"></path>
        <path d="M112.8683,91.8171 C106.5503,94.1801 100.6263,98.9051 95.9333,103.5051 L79.9853,125.6931 C78.3873,127.9171 78.0613,130.8131 79.1273,133.3361 L91.1913,161.9221 C91.9443,163.7051 91.7733,165.7441 90.7343,167.3771 L76.8373,189.2131 C75.6393,191.0961 75.2973,193.4001 75.8983,195.5491 L85.6573,230.4461 C85.6903,230.4711 85.7613,230.5251 85.7613,230.5251 C85.7613,230.5251 160.6793,173.9131 160.6793,126.8791 C160.6793,89.3531 126.6973,86.6451 112.8683,91.8171" id="Fill-53" fill="#45414A"></path>
        <path d="M69.6818,109.614 C70.8008,108.057 70.6448,105.927 69.2998,104.561 C64.4598,99.645 58.1178,94.363 51.3108,91.817 C37.4808,86.645 3.4998,89.353 3.4998,126.879 C3.4998,129.907 3.8218,132.976 4.4028,136.066 C9.6558,111.729 38.7508,110.11 51.3108,114.123 C55.3298,115.408 59.1788,117.307 62.6658,119.376 L69.6818,109.614 Z" id="Fill-55" fill="#87898C"></path>
        <path d="M112.8683,91.8171 C106.5503,94.1801 100.6263,98.9051 95.9333,103.5051 L79.6853,126.1101 C83.4543,129.1341 85.7613,131.4631 85.7613,131.4631 C85.7613,131.4631 98.2773,118.7861 112.8683,114.1231 C125.4283,110.1091 154.5223,111.7291 159.7763,136.0651 C160.3573,132.9751 160.6793,129.9061 160.6793,126.8791 C160.6793,89.3531 126.6973,86.6451 112.8683,91.8171" id="Fill-57" fill="#87898C"></path>
        <path d="M55.549,192.8117 C55.098,191.2007 55.354,189.4737 56.252,188.0617 L69.571,167.1327 C70.957,164.9547 71.186,162.2347 70.182,159.8567 L58.352,131.8247 C57.287,129.3017 57.613,126.4057 59.211,124.1827 L69.682,109.6137 C70.8003765,108.0577 70.645,105.9267 69.3,104.5607 C64.46,99.6447 58.118,94.3627 51.311,91.8167 C37.481,86.6447 3.5,89.3527 3.5,126.8787 C3.5,157.4567 35.144,192.0577 57.299,212.5407 C58.751,213.8837 61.042,212.4537 60.51,210.5487 L55.549,192.8117 Z" id="Stroke-59" stroke="#45413C" stroke-width="7" stroke-linecap="round" stroke-linejoin="round"></path>
        <path d="M112.8683,91.8171 C106.5503,94.1801 100.6263,98.9051 95.9333,103.5051 L79.9853,125.6931 C78.3873,127.9171 78.0613,130.8131 79.1273,133.3361 L91.1913,161.9221 C91.9443,163.7051 91.7733,165.7441 90.7343,167.3771 L76.8373,189.2131 C75.6393,191.0961 75.2973,193.4001 75.8983,195.5491 L85.6573,230.4461 C85.6903,230.4711 85.7613,230.5251 85.7613,230.5251 C85.7613,230.5251 160.6793,173.9131 160.6793,126.8791 C160.6793,89.3531 126.6973,86.6451 112.8683,91.8171 Z" id="Stroke-61" stroke="#45413C" stroke-width="7" stroke-linecap="round" stroke-linejoin="round"></path>
        <mask id="mask-2" fill="white">
            <use xlink:href="#path-1"></use>
        </mask>
        <g id="Clip-64"></g>
        <polygon id="Fill-63" fill="#FFFFFF" mask="url(#mask-2)" points="60.054 376.824 304.447 376.824 304.447 315.492 60.054 315.492"></polygon>
        <polygon id="Fill-65" fill="#E0E0E0" mask="url(#mask-2)" points="60.054 327.385 304.447 327.385 304.447 315.492 60.054 315.492"></polygon>
        <polygon id="Stroke-66" stroke="#45413C" stroke-width="7" stroke-linecap="round" stroke-linejoin="round" mask="url(#mask-2)" points="60.054 376.824 304.447 376.824 304.447 315.492 60.054 315.492"></polygon>
        <path d="M312.2668,315.4924 L52.2368,315.4924 C51.5558,315.4924 51.0038,314.9404 51.0038,314.2604 L51.0038,294.0964 C51.0038,293.4154 51.5558,292.8644 52.2368,292.8644 L312.2668,292.8644 C312.9478,292.8644 313.4988,293.4154 313.4988,294.0964 L313.4988,314.2604 C313.4988,314.9404 312.9478,315.4924 312.2668,315.4924" id="Fill-67" fill="#87898C" mask="url(#mask-2)"></path>
        <path d="M304.4474,292.864 L60.0544,292.864 C55.0564,292.864 51.0044,296.917 51.0044,301.915 L51.0044,306.441 C51.0044,307.646 51.2594,308.784 51.6884,309.836 C53.0324,306.523 56.2594,304.178 60.0544,304.178 L304.4474,304.178 C308.2434,304.178 311.4704,306.523 312.8134,309.836 C313.2434,308.784 313.4994,307.646 313.4994,306.441 L313.4994,301.915 C313.4994,296.917 309.4464,292.864 304.4474,292.864" id="Fill-68" fill="#BDBEC0" mask="url(#mask-2)"></path>
        <path d="M312.2668,315.4924 L52.2368,315.4924 C51.5558,315.4924 51.0038,314.9404 51.0038,314.2604 L51.0038,294.0964 C51.0038,293.4154 51.5558,292.8644 52.2368,292.8644 L312.2668,292.8644 C312.9478,292.8644 313.4988,293.4154 313.4988,294.0964 L313.4988,314.2604 C313.4988,314.9404 312.9478,315.4924 312.2668,315.4924 Z" id="Stroke-69" stroke="#45413C" stroke-width="7" stroke-linecap="round" stroke-linejoin="round" mask="url(#mask-2)"></path>
        <polygon id="Fill-70" fill="#00B8F0" mask="url(#mask-2)" points="87.21 359.643 114.364 359.643 114.364 335.305 87.21 335.305"></polygon>
        <polygon id="Fill-71" fill="#4ACFFF" mask="url(#mask-2)" points="96.6515 359.6428 114.3645 359.6428 114.3645 335.3048 109.2735 335.3048"></polygon>
        <polygon id="Fill-72" fill="#00B8F0" mask="url(#mask-2)" points="250.139 359.643 277.292 359.643 277.292 335.305 250.139 335.305"></polygon>
        <polygon id="Fill-73" fill="#4ACFFF" mask="url(#mask-2)" points="259.5793 359.6428 277.2923 359.6428 277.2923 335.3048 272.2013 335.3048"></polygon>
        <polygon id="Fill-74" fill="#00B8F0" mask="url(#mask-2)" points="195.83 359.643 222.984 359.643 222.984 335.305 195.83 335.305"></polygon>
        <polygon id="Fill-75" fill="#4ACFFF" mask="url(#mask-2)" points="205.2697 359.6428 222.9837 359.6428 222.9837 335.3048 217.8917 335.3048"></polygon>
        <polygon id="Fill-76" fill="#00B8F0" mask="url(#mask-2)" points="141.52 359.643 168.674 359.643 168.674 335.305 141.52 335.305"></polygon>
        <polygon id="Fill-77" fill="#4ACFFF" mask="url(#mask-2)" points="150.9601 359.6428 168.6741 359.6428 168.6741 335.3048 163.5831 335.3048"></polygon>
        <polygon id="Stroke-78" stroke="#45413C" stroke-width="7" stroke-linecap="round" stroke-linejoin="round" mask="url(#mask-2)" points="87.21 359.643 114.364 359.643 114.364 335.305 87.21 335.305"></polygon>
        <polygon id="Stroke-79" stroke="#45413C" stroke-width="7" stroke-linecap="round" stroke-linejoin="round" mask="url(#mask-2)" points="250.139 359.643 277.292 359.643 277.292 335.305 250.139 335.305"></polygon>
        <polygon id="Stroke-80" stroke="#45413C" stroke-width="7" stroke-linecap="round" stroke-linejoin="round" mask="url(#mask-2)" points="195.83 359.643 222.984 359.643 222.984 335.305 195.83 335.305"></polygon>
        <polygon id="Stroke-81" stroke="#45413C" stroke-width="7" stroke-linecap="round" stroke-linejoin="round" mask="url(#mask-2)" points="141.52 359.643 168.674 359.643 168.674 335.305 141.52 335.305"></polygon>
        <line x1="189.4552" y1="140.7458" x2="253.5262" y2="140.7458" id="Stroke-82" stroke="#45413C" stroke-width="7" stroke-linecap="round" stroke-linejoin="round" mask="url(#mask-2)"></line>
        <line x1="234.5079" y1="140.7986" x2="292.1429" y2="291.7296" id="Stroke-83" stroke="#45413C" stroke-width="7" stroke-linecap="round" stroke-linejoin="round" mask="url(#mask-2)"></line>
        <line x1="150.9855" y1="291.7292" x2="208.5035" y2="140.7462" id="Stroke-84" stroke="#45413C" stroke-width="7" stroke-linecap="round" stroke-linejoin="round" mask="url(#mask-2)"></line>
        <polyline id="Stroke-85" stroke="#45413C" stroke-width="7" stroke-linecap="round" stroke-linejoin="round" mask="url(#mask-2)" points="200.1183 162.7644 263.3103 216.2524 152.8983 286.7104"></polyline>
        <polyline id="Stroke-86" stroke="#45413C" stroke-width="7" stroke-linecap="round" stroke-linejoin="round" mask="url(#mask-2)" points="242.8722 162.7644 179.7632 216.2824 290.2202 286.7414"></polyline>
        <path d="M217.5226,97.8318 C217.5226,97.8318 208.4076,67.9218 182.1466,61.9638 C155.8856,56.0068 143.0886,72.8438 124.9906,52.0598 C106.8926,31.2758 136.5446,0.5178 171.1946,13.8528 C199.4496,24.7278 220.1366,49.8948 217.5226,97.8318" id="Fill-90" fill="#45414A" mask="url(#mask-2)"></path>
        <path d="M231.5499,59.7356 C231.5499,59.7356 231.9129,22.9596 250.0589,9.4946 C268.2049,-3.9714 292.5639,7.2126 292.654246,23.6446 C292.7429,40.0756 275.6509,40.6446 260.1359,41.5836 C242.9959,42.6196 231.5499,59.7356 231.5499,59.7356" id="Fill-91" fill="#45414A" mask="url(#mask-2)"></path>
        <path d="M171.1945,13.8528 C139.9905,1.8428 113.2355,18.3438 121.3625,38.3668 C128.0305,24.7338 149.2645,16.9948 171.6705,25.6178 C195.5405,34.8038 212.5485,59.4098 216.1325,94.1058 C217.0865,96.3978 217.5205,97.8268 217.5225,97.8318 C220.1365,49.8948 199.4505,24.7268 171.1945,13.8528" id="Fill-92" fill="#87898C" mask="url(#mask-2)"></path>
        <path d="M232.7794,58.1013 C235.0294,46.8923 242.7074,29.1373 252.2124,22.0853 C267.4254,10.7943 280.1224,13.5583 289.8604,33.1153 C291.6384,30.7523 292.6754,27.6873 292.654713,23.6453 C292.5644,7.2123 268.2054,-3.9707 250.0604,9.4953 C231.9114,22.9593 231.5494,59.7353 231.5494,59.7353 C231.5494,59.7353 232.0514,59.0383 232.7794,58.1013" id="Fill-93" fill="#87898C" mask="url(#mask-2)"></path>
        <path d="M217.5226,97.8318 C217.5226,97.8318 208.4076,67.9218 182.1466,61.9638 C155.8856,56.0068 143.0886,72.8438 124.9906,52.0598 C106.8926,31.2758 136.5446,0.5178 171.1946,13.8528 C199.4496,24.7278 220.1366,49.8948 217.5226,97.8318 Z" id="Stroke-94" stroke="#45413C" stroke-width="7" stroke-linecap="round" stroke-linejoin="round" mask="url(#mask-2)"></path>
        <path d="M231.5499,59.7356 C231.5499,59.7356 231.9129,22.9596 250.0589,9.4946 C268.2049,-3.9714 292.5639,7.2126 292.654246,23.6446 C292.7429,40.0756 275.6509,40.6446 260.1359,41.5836 C242.9959,42.6196 231.5499,59.7356 231.5499,59.7356 Z" id="Stroke-95" stroke="#45413C" stroke-width="7" stroke-linecap="round" stroke-linejoin="round" mask="url(#mask-2)"></path>
    </g>
</svg>